<?xml version="1.0" encoding="utf-8"?>
<!-- Generator: Adobe Illustrator 23.0.3, SVG Export Plug-In . SVG Version: 6.00 Build 0)  -->
<svg version="1.1" id="Слой_1" xmlns="http://www.w3.org/2000/svg" xmlns:xlink="http://www.w3.org/1999/xlink" x="0px" y="0px"
	 viewBox="0 0 605.666 100" enable-background="new 0 0 605.666 100" xml:space="preserve">
<g>
	<g>
		<path fill="#28334A" d="M140.59,23.51h17.408c8.325,0,14.632,2.108,18.921,6.319c4.288,4.215,6.433,10.232,6.433,18.051v4.238
			c0,7.72-2.17,13.714-6.51,17.976c-4.34,4.264-10.621,6.396-18.845,6.396H140.59V23.51z M149.672,31.532v36.934h8.326
			c5.247,0,9.195-1.337,11.844-4.01c2.65-2.675,3.973-6.787,3.973-12.338V47.88c0-5.497-1.337-9.598-4.011-12.299
			c-2.674-2.697-6.611-4.049-11.807-4.049H149.672z"/>
		<path fill="#28334A" d="M207.57,77.172c-5.702,0-10.154-1.615-13.358-4.844c-3.205-3.229-4.805-7.746-4.805-13.548v-2.423
			c0-2.876,0.416-5.448,1.248-7.72c0.832-2.27,2.044-4.2,3.633-5.789c1.589-1.589,3.494-2.8,5.714-3.633
			c2.219-0.832,4.742-1.25,7.568-1.25c5.702,0,10.154,1.617,13.359,4.844c3.204,3.229,4.807,7.746,4.807,13.548v2.423
			c0,2.876-0.416,5.448-1.249,7.72c-0.833,2.27-2.043,4.2-3.633,5.789c-1.59,1.589-3.508,2.8-5.753,3.633
			C212.856,76.753,210.345,77.172,207.57,77.172z M207.57,68.996c2.876,0,5.084-0.832,6.623-2.497
			c1.539-1.666,2.309-4.238,2.309-7.72v-2.423c0-3.43-0.796-5.991-2.384-7.681c-1.589-1.69-3.773-2.535-6.547-2.535
			c-2.876,0-5.084,0.832-6.622,2.497c-1.54,1.666-2.308,4.238-2.308,7.72v2.423c0,3.43,0.793,5.991,2.383,7.681
			C202.614,68.151,204.796,68.996,207.57,68.996z"/>
		<path fill="#28334A" d="M236.519,73.274c-2.145-2.145-3.217-5.234-3.217-9.272V23.51h8.779v39.584
			c0,1.966,0.429,3.406,1.287,4.314c0.858,0.908,2.169,1.363,3.936,1.363h1.892v7.72h-3.482
			C241.728,76.49,238.663,75.417,236.519,73.274z"/>
		<path fill="#28334A" d="M274.702,77.172c-4.744,0-8.427-1.49-11.051-4.467v18.922h-8.779V38.646h6.887l0.833,5.148
			c1.311-1.968,2.989-3.432,5.032-4.392c2.044-0.957,4.402-1.438,7.078-1.438c2.169,0,4.174,0.392,6.017,1.173
			c1.841,0.785,3.417,1.945,4.73,3.482c1.311,1.541,2.346,3.458,3.102,5.754c0.757,2.296,1.136,4.956,1.136,7.983v2.423
			c0,3.027-0.379,5.676-1.136,7.947c-0.757,2.27-1.804,4.189-3.141,5.752c-1.337,1.565-2.913,2.738-4.73,3.518
			C278.864,76.779,276.871,77.172,274.702,77.172z M272.052,68.996c2.673,0,4.743-0.806,6.207-2.421
			c1.462-1.615,2.195-4.213,2.195-7.796v-2.423c0-3.482-0.757-6.054-2.27-7.72c-1.514-1.664-3.557-2.497-6.131-2.497
			c-2.421,0-4.402,0.832-5.942,2.497c-1.539,1.666-2.359,4.088-2.46,7.267v2.876c0,3.329,0.796,5.864,2.384,7.606
			C267.624,68.126,269.631,68.996,272.052,68.996z"/>
		<path fill="#28334A" d="M297.256,23.51h8.78v18.392c2.522-2.624,6.028-3.937,10.52-3.937c4.642,0,8.261,1.375,10.86,4.126
			s3.898,6.899,3.898,12.45V76.49h-8.779V54.541c0-2.775-0.669-4.87-2.006-6.282c-1.338-1.412-3.167-2.119-5.487-2.119
			c-2.725,0-4.882,0.731-6.471,2.195c-1.59,1.464-2.436,3.406-2.535,5.827V76.49h-8.78V23.51z"/>
		<path fill="#28334A" d="M345.542,34.106c-1.615,0-2.964-0.541-4.049-1.628c-1.087-1.084-1.628-2.434-1.628-4.049
			c0-1.615,0.541-2.964,1.628-4.049c1.084-1.084,2.434-1.628,4.049-1.628c1.563,0,2.902,0.543,4.012,1.628
			c1.108,1.084,1.664,2.434,1.664,4.049c0,1.615-0.556,2.964-1.664,4.049C348.444,33.565,347.105,34.106,345.542,34.106z
			 M341.153,38.646h8.779V76.49h-8.779V38.646z"/>
		<path fill="#28334A" d="M360.15,38.646h6.886l0.681,4.238c2.824-3.279,6.735-4.92,11.732-4.92c4.639,0,8.261,1.375,10.859,4.126
			s3.898,6.899,3.898,12.45V76.49h-8.779V54.541c0-2.775-0.67-4.87-2.007-6.282c-1.337-1.412-3.165-2.119-5.485-2.119
			c-2.725,0-4.883,0.731-6.472,2.195c-1.591,1.464-2.436,3.406-2.535,5.827V76.49h-8.779V38.646z"/>
		<path fill="#28334A" d="M425.995,28.354h-3.482c-5.752,0-8.628,3.027-8.628,9.083v9.837c0,2.272-0.341,4.303-1.022,6.093
			c-0.681,1.794-2.184,3.193-4.504,4.202c1.16,0.556,2.106,1.186,2.837,1.893c0.733,0.707,1.3,1.5,1.703,2.382
			c0.405,0.884,0.668,1.83,0.796,2.839c0.125,1.009,0.19,2.07,0.19,3.178V77.7c0,6.056,2.876,9.083,8.628,9.083h3.482v4.844h-3.482
			c-9.285,0-13.927-4.644-13.927-13.927V67.86c0-2.673-0.593-4.603-1.779-5.789c-1.186-1.186-2.611-1.904-4.275-2.158v-4.691
			c1.664-0.252,3.089-0.972,4.275-2.158c1.186-1.186,1.779-3.115,1.779-5.791v-9.837c0-9.283,4.642-13.927,13.927-13.927h3.482
			V28.354z"/>
		<path fill="#28334A" d="M444.538,77.019c-3.784,0-6.688-0.97-8.703-2.913c-2.02-1.942-3.029-4.629-3.029-8.061
			c0-1.817,0.291-3.469,0.871-4.959c0.58-1.488,1.513-2.736,2.8-3.745c1.287-1.009,2.938-1.792,4.959-2.348
			c2.016-0.554,4.439-0.832,7.265-0.832h8.628v-3.406c0-2.723-0.67-4.73-2.005-6.017c-1.339-1.285-3.546-1.93-6.623-1.93
			c-2.777,0-4.857,0.543-6.246,1.628c-1.386,1.087-2.182,2.561-2.382,4.428h-5.375c0.101-1.565,0.455-3.001,1.059-4.314
			c0.606-1.313,1.488-2.447,2.65-3.406c1.16-0.959,2.598-1.703,4.314-2.233c1.716-0.528,3.708-0.793,5.98-0.793
			c4.489,0,7.882,1.11,10.18,3.329c2.294,2.221,3.443,5.325,3.443,9.309V76.49h-3.861l-0.757-7.114
			c-1.313,2.421-3.115,4.301-5.411,5.638C449.998,76.35,447.414,77.019,444.538,77.019z M444.915,72.327
			c1.716,0,3.331-0.315,4.844-0.946c1.513-0.63,2.839-1.488,3.973-2.574c1.136-1.084,2.018-2.346,2.65-3.784
			c0.63-1.438,0.946-2.964,0.946-4.579v-1.74h-8.628c-3.887,0-6.649,0.681-8.287,2.042c-1.641,1.363-2.462,3.13-2.462,5.299
			c0,1.917,0.593,3.443,1.781,4.579C440.916,71.758,442.645,72.327,444.915,72.327z"/>
		<path fill="#28334A" d="M474.81,38.646h3.859l0.606,6.207c1.261-2.169,2.964-3.833,5.109-4.995c2.143-1.16,4.629-1.74,7.455-1.74
			c4.338,0,7.757,1.313,10.253,3.934c2.499,2.624,3.747,6.534,3.747,11.732V76.49h-4.995V53.785c0-3.682-0.858-6.433-2.572-8.251
			c-1.716-1.817-4.113-2.725-7.19-2.725c-3.331,0-6.017,0.959-8.061,2.876c-2.044,1.919-3.117,4.465-3.217,7.645V76.49h-4.995
			V38.646z"/>
		<path fill="#28334A" d="M513.032,38.646h6.81V28.052h4.995v10.594h10.141v4.542h-10.141v22.706c0,4.036,1.867,6.054,5.601,6.054
			h5.299v4.542h-5.905c-3.279,0-5.765-0.845-7.455-2.535c-1.69-1.69-2.535-4.176-2.535-7.455V43.189h-6.81V38.646z"/>
		<path fill="#28334A" d="M557.456,76.49l-15.667-37.844h5.601l12.791,31.637l11.883-31.637h5.297l-20.436,52.981h-5.297
			L557.456,76.49z"/>
		<path fill="#28334A" d="M582.205,86.782h3.482c5.752,0,8.628-3.027,8.628-9.083V67.86c0-2.27,0.338-4.301,1.02-6.093
			c0.681-1.789,2.182-3.191,4.504-4.2c-1.162-0.554-2.106-1.186-2.837-1.893c-0.733-0.705-1.3-1.5-1.703-2.384
			c-0.403-0.882-0.668-1.828-0.793-2.837c-0.127-1.009-0.19-2.067-0.19-3.18v-9.837c0-6.056-2.876-9.083-8.628-9.083h-3.482V23.51
			h3.482c9.283,0,13.925,4.644,13.925,13.927v9.837c0,2.675,0.593,4.607,1.779,5.793c1.184,1.184,2.611,1.904,4.275,2.156v4.691
			c-1.664,0.254-3.091,0.972-4.275,2.158c-1.186,1.184-1.779,3.115-1.779,5.789V77.7c0,9.283-4.642,13.927-13.925,13.927h-3.482
			V86.782z"/>
	</g>
	<g>
		
			<linearGradient id="SVGID_1_" gradientUnits="userSpaceOnUse" x1="106.3904" y1="1479.1997" x2="206.3904" y2="1479.1997" gradientTransform="matrix(0 1 -1 0 1529.1997 -106.3904)">
			<stop  offset="0.0056" style="stop-color:#B645EE"/>
			<stop  offset="1" style="stop-color:#9B26B6"/>
		</linearGradient>
		<path fill="url(#SVGID_1_)" d="M0,50C0,0,0,0,50,0s50,0,50,50s0,50-50,50S0,100,0,50"/>
		<path fill="#FFFFFF" d="M70.547,47.887v4.258c0,7.694-2.176,13.686-6.527,17.974c-4.321,4.258-10.596,6.372-18.827,6.372H31.286
			c3.657-1.577,5.486-4.983,5.486-10.218v-7.947c0-2.176,0.473-3.722,1.42-4.698c0.978-0.947,2.113-1.515,3.468-1.735v-3.783
			c-1.355-0.222-2.49-0.788-3.468-1.735c-0.947-0.978-1.42-2.522-1.42-4.698v-7.949c0-5.234-1.829-8.64-5.486-10.217h13.906
			c8.326,0,14.633,2.113,18.921,6.339C68.404,34.042,70.547,40.066,70.547,47.887z"/>
	</g>
</g>
</svg>
